<?xml version="1.0" encoding="utf-8"?>
<!-- Generator: Adobe Illustrator 16.0.0, SVG Export Plug-In . SVG Version: 6.00 Build 0)  -->
<!DOCTYPE svg PUBLIC "-//W3C//DTD SVG 1.1//EN" "http://www.w3.org/Graphics/SVG/1.1/DTD/svg11.dtd">
<svg version="1.1"
		 id="svg1" xmlns:dc="http://purl.org/dc/elements/1.1/" xmlns:cc="http://creativecommons.org/ns#" xmlns:rdf="http://www.w3.org/1999/02/22-rdf-syntax-ns#" xmlns:svg="http://www.w3.org/2000/svg" xmlns:sodipodi="http://sodipodi.sourceforge.net/DTD/sodipodi-0.dtd" xmlns:inkscape="http://www.inkscape.org/namespaces/inkscape" sodipodi:docname="Mereruka Inkscape 011c.svg" inkscape:version="0.48.0 r9654"
		 xmlns="http://www.w3.org/2000/svg" xmlns:xlink="http://www.w3.org/1999/xlink" x="0px" y="0px"
		 width="500px" height="600px" viewBox="0 0 1018.422 1697.125" enable-background="new 0 0 1018.422 1697.125" xml:space="preserve">
		<title  id="title3256">floor plan</title>
	<sodipodi:namedview  units="cm" objecttolerance="10" guidetolerance="10" showguides="false" fit-margin-left="1.5" fit-margin-top="2" showgrid="false" inkscape:cy="848.56311" inkscape:cx="509.21069" inkscape:zoom="0.46431432" borderopacity="1.0" bordercolor="#666666" pagecolor="#ffffff" id="base" inkscape:pageopacity="0.0" inkscape:pageshadow="2" inkscape:guide-bbox="true" inkscape:snap-global="true" fit-margin-bottom="1" fit-margin-right="2" inkscape:window-maximized="0" inkscape:window-y="0" inkscape:window-x="51" inkscape:window-width="1633" inkscape:window-height="1006" inkscape:current-layer="layer13" inkscape:document-units="cm">
		</sodipodi:namedview>
	<g id="layer6" transform="translate(-5.9441437,7.9118888)" inkscape:label="Temenos" inkscape:groupmode="layer" sodipodi:insensitive="true">

			<path id="rect1" inkscape:connector-curvature="0" fill="#CCCCCC" stroke="#000000" stroke-width="0.5" stroke-linecap="square" d="
			M59.406,1548.157v105.313h7.5H82.75h350.188v-19.781H82.75v-85.531H59.406L59.406,1548.157z"/>

			<rect id="rect2" x="82.761" y="1567.553" fill="#F2F2F2" stroke="#000000" stroke-width="0.5" stroke-linecap="square" width="30.095" height="56.824"/>
	</g>
	<g id="layer7" transform="translate(14.473802,9.4938883)" inkscape:label="Umriss" inkscape:groupmode="layer" sodipodi:insensitive="true">

			<rect id="rect3" x="57.573" y="61.685" fill="#B3B3B3" stroke="#000000" stroke-width="0.5" stroke-linecap="square" width="875.197" height="1497.226"/>
	</g>
	<g id="layer8" transform="translate(14.473802,9.4938883)" inkscape:label="Kammern" inkscape:groupmode="layer" sodipodi:insensitive="true">

			<rect id="rect4" x="451.656" y="486.281" fill="#F4EED7" stroke="#000000" stroke-width="0.5" stroke-linecap="square" width="416.336" height="326.985"/>

			<rect id="rect5" x="452.171" y="850.764" fill="#F4EED7" stroke="#000000" stroke-width="0.5" stroke-linecap="square" width="312.048" height="82.691"/>

			<rect id="rect6" x="794.611" y="858.397" fill="#F4EED7" stroke="#000000" stroke-width="0.5" stroke-linecap="square" width="96.462" height="75.059"/>

			<rect id="rect7" x="781.353" y="893.473" fill="#F4EED7" stroke="#000000" stroke-width="0.5" stroke-linecap="square" width="13.258" height="39.982"/>

			<rect id="rect8" x="764.219" y="900.016" fill="#F4EED7" stroke="#000000" stroke-width="0.5" stroke-linecap="square" width="17.135" height="25.807"/>

			<rect id="rect9" x="626.32" y="969.259" fill="#F4EED7" stroke="#000000" stroke-width="0.5" stroke-linecap="square" width="85.11" height="250.242"/>

			<rect id="rect10" x="711.43" y="969.259" fill="#F4EED7" stroke="#000000" stroke-width="0.5" stroke-linecap="square" width="26.612" height="32.477"/>

			<rect id="rect11" x="749.887" y="975.134" fill="#F4EED7" stroke="#000000" stroke-width="0.5" stroke-linecap="square" width="133.233" height="387.072"/>

			<rect id="rect12" x="738.043" y="975.134" fill="#F4EED7" stroke="#000000" stroke-width="0.5" stroke-linecap="square" width="11.844" height="19.932"/>

			<rect id="rect13" x="622.279" y="1245.663" fill="#F4EED7" stroke="#000000" stroke-width="0.5" stroke-linecap="square" width="89.151" height="116.543"/>

			<rect id="rect14" x="675.711" y="1219.501" fill="#F4EED7" stroke="#000000" stroke-width="0.5" stroke-linecap="square" width="26.716" height="26.162"/>

			<rect id="rect15" x="512.24" y="1395.985" fill="#F4EED7" stroke="#000000" stroke-width="0.5" stroke-linecap="square" width="199.19" height="85.221"/>

			<rect id="rect16" x="734.684" y="1406.889" fill="#F4EED7" stroke="#000000" stroke-width="0.5" stroke-linecap="square" width="90.235" height="74.316"/>

			<rect id="rect17" x="711.43" y="1412.706" fill="#F4EED7" stroke="#000000" stroke-width="0.5" stroke-linecap="square" stroke-dasharray="1.875,1.875" width="23.254" height="18.891"/>

			<rect id="rect18" x="544.606" y="575.982" fill="#B3B3B3" stroke="#000000" stroke-width="0.5" stroke-linecap="square" width="34.459" height="34.459"/>

			<rect id="rect19" x="661.826" y="575.982" fill="#B3B3B3" stroke="#000000" stroke-width="0.5" stroke-linecap="square" width="34.459" height="34.459"/>

			<rect id="rect20" x="777.485" y="575.982" fill="#B3B3B3" stroke="#000000" stroke-width="0.5" stroke-linecap="square" width="34.459" height="34.459"/>

			<rect id="rect21" x="544.606" y="685.986" fill="#B3B3B3" stroke="#000000" stroke-width="0.5" stroke-linecap="square" width="34.459" height="34.46"/>

			<rect id="rect22" x="661.826" y="685.986" fill="#B3B3B3" stroke="#000000" stroke-width="0.5" stroke-linecap="square" width="34.459" height="34.46"/>

			<rect id="rect23" x="777.485" y="685.986" fill="#B3B3B3" stroke="#000000" stroke-width="0.5" stroke-linecap="square" width="34.459" height="34.46"/>

			<rect id="rect24" x="813.211" y="1048.315" fill="#B3B3B3" stroke="#000000" stroke-width="0.5" stroke-linecap="square" width="21.075" height="21.076"/>

			<rect id="rect25" x="813.211" y="1125.01" fill="#B3B3B3" stroke="#000000" stroke-width="0.5" stroke-linecap="square" width="21.075" height="21.076"/>

			<rect id="rect26" x="813.211" y="1200.251" fill="#B3B3B3" stroke="#000000" stroke-width="0.5" stroke-linecap="square" width="21.075" height="21.076"/>

			<rect id="rect27" x="813.211" y="1275.491" fill="#B3B3B3" stroke="#000000" stroke-width="0.5" stroke-linecap="square" width="21.075" height="21.076"/>

			<rect id="rect28" x="523.155" y="1072.85" fill="#F4EED7" stroke="#000000" stroke-width="0.5" stroke-linecap="square" width="67.986" height="289.355"/>

			<rect id="rect29" x="454.154" y="1541.604" fill="#F4EED7" stroke="#000000" stroke-width="0.5" stroke-linecap="square" width="152.155" height="17.307"/>

			<rect id="rect30" x="376.02" y="969.259" fill="#F4EED7" stroke="#000000" stroke-width="0.5" stroke-linecap="square" width="215.121" height="73.984"/>

			<rect id="rect31" x="591.141" y="1006.747" fill="#F4EED7" stroke="#000000" stroke-width="0.5" stroke-linecap="square" width="7.425" height="36.496"/>

			<rect id="rect32" x="598.566" y="1012.915" fill="#F4EED7" stroke="#000000" stroke-width="0.5" stroke-linecap="square" width="27.754" height="22.875"/>

			<rect id="rect33" x="127.218" y="842.382" fill="#F4EED7" stroke="#000000" stroke-width="0.5" stroke-linecap="square" width="285.298" height="92.914"/>

			<rect id="rect34" x="333.612" y="633.403" fill="#F4EED7" stroke="#000000" stroke-width="0.5" stroke-linecap="square" width="78.904" height="179.864"/>

			<rect id="rect35" x="333.612" y="533.059" fill="#F4EED7" stroke="#000000" stroke-width="0.5" stroke-linecap="square" width="78.904" height="66.903"/>

			<rect id="rect36" x="333.612" y="527.084" fill="#F4EED7" stroke="#000000" stroke-width="0.5" stroke-linecap="square" width="32.898" height="5.997"/>

			<rect id="rect37" x="338.495" y="517.451" fill="#F4EED7" stroke="#000000" stroke-width="0.5" stroke-linecap="square" width="22.512" height="9.633"/>

			<path id="rect38" sodipodi:nodetypes="ccccccccc" inkscape:connector-curvature="0" fill="#F4EED7" stroke="#000000" stroke-width="0.5" stroke-linecap="square" d="
			M247.5,473.563l0.01,246.863h44.001V517.451l129.926-0.014v-39.125h-19.969v-4.75H247.5z"/>

			<rect id="rect39" x="152.156" y="478.314" fill="#F4EED7" stroke="#000000" stroke-width="0.5" stroke-linecap="square" width="81.199" height="54.586"/>

			<rect id="rect40" x="240.056" y="478.314" fill="#F4EED7" stroke="#000000" stroke-width="0.5" stroke-linecap="square" width="7.454" height="26.598"/>

			<rect id="rect41" x="233.355" y="478.314" fill="#F4EED7" stroke="#000000" stroke-width="0.5" stroke-linecap="square" width="6.702" height="31.687"/>

			<rect id="rect42" x="152.156" y="571.247" fill="#F4EED7" stroke="#000000" stroke-width="0.5" stroke-linecap="square" width="81.199" height="56.702"/>

			<rect id="rect43" x="233.355" y="571.247" fill="#F4EED7" stroke="#000000" stroke-width="0.5" stroke-linecap="square" width="6.702" height="36.348"/>

			<rect id="rect44" x="240.056" y="571.247" fill="#F4EED7" stroke="#000000" stroke-width="0.5" stroke-linecap="square" width="7.454" height="28.715"/>

			<rect id="rect45" x="152.156" y="664.661" fill="#F4EED7" stroke="#000000" stroke-width="0.5" stroke-linecap="square" width="81.199" height="55.765"/>

			<rect id="rect46" x="233.355" y="674.294" fill="#F4EED7" stroke="#000000" stroke-width="0.5" stroke-linecap="square" width="6.702" height="25.625"/>

			<rect id="rect47" x="240.056" y="674.294" fill="#F4EED7" stroke="#000000" stroke-width="0.5" stroke-linecap="square" width="7.454" height="19.082"/>

			<path id="rect48" sodipodi:nodetypes="ccccccccc" inkscape:connector-curvature="0" fill="#F4EED7" stroke="#000000" stroke-width="0.5" stroke-linecap="square" d="
			M247.5,744.063v12.475h-2.156v62.619h57.254v-53H291.5v-22.094H247.5z"/>

			<rect id="rect49" x="257.981" y="734.177" fill="#F4EED7" stroke="#000000" stroke-width="0.5" stroke-linecap="square" width="33.531" height="9.896"/>

			<rect id="rect50" x="264.251" y="720.426" fill="#F4EED7" stroke="#000000" stroke-width="0.5" stroke-linecap="square" width="19.719" height="13.751"/>

			<rect id="rect51" x="152.156" y="756.537" fill="#F4EED7" stroke="#000000" stroke-width="0.5" stroke-linecap="square" width="93.194" height="49.99"/>

			<rect id="rect52" x="154.983" y="969.259" fill="#F4EED7" stroke="#000000" stroke-width="0.5" stroke-linecap="square" width="191.051" height="73.984"/>

			<rect id="rect53" x="281.951" y="1265.436" fill="#EEF4D7" stroke="#000000" stroke-width="0.5" stroke-linecap="square" width="197.648" height="218.34"/>

			<rect id="rect54" x="346.579" y="1325.288" fill="#B3B3B3" stroke="#000000" stroke-width="0.5" stroke-linecap="square" width="28.352" height="28.896"/>

			<rect id="rect55" x="346.579" y="1394.057" fill="#B3B3B3" stroke="#000000" stroke-width="0.5" stroke-linecap="square" width="28.352" height="29.008"/>

			<rect id="rect56" x="179.271" y="1330.719" fill="#EEF4D7" stroke="#000000" stroke-width="0.5" stroke-linecap="square" width="71.708" height="153.057"/>

			<rect id="rect57" x="117.586" y="1349.641" fill="#EEF4D7" stroke="#000000" stroke-width="0.5" stroke-linecap="square" width="34.569" height="69.789"/>

			<path id="rect58" sodipodi:nodetypes="ccccccccc" inkscape:connector-curvature="0" fill="#EEF4D7" stroke="#000000" stroke-width="0.5" stroke-linecap="square" d="
			M179.187,1072.844v68.719l-78.923-0.016v66.881l78.923,0.01v86.875h60.875v-222.469H179.187z"/>

			<rect id="rect59" x="212.909" y="1295.302" fill="#EEF4D7" stroke="#000000" stroke-width="0.5" stroke-linecap="square" width="24.512" height="35.418"/>

			<path id="path1" sodipodi:nodetypes="ccccc" inkscape:connector-curvature="0" fill="#DDE9AF" stroke="#000000" stroke-width="0.5" d="
			M152.156,1374.8l27.116,4.508v7.057l-27.116,3.6V1374.8z"/>

			<rect id="rect60" x="434.813" y="1238.835" fill="#EEF4D7" stroke="#000000" stroke-width="0.5" stroke-linecap="square" width="44.785" height="26.602"/>

			<path id="rect61" sodipodi:nodetypes="ccccccc" inkscape:connector-curvature="0" fill="#EEF4D7" stroke="#000000" stroke-width="0.5" stroke-linecap="square" d="
			M291.512,1064.774v46.994h141.301v111.764h46.781v-158.764L291.512,1064.774z"/>

			<rect id="rect62" x="443.356" y="1223.544" fill="#EEF4D7" stroke="#000000" stroke-width="0.5" stroke-linecap="square" width="24.328" height="15.291"/>

			<rect id="rect63" x="773.669" y="352.431" fill="#F4E3D7" stroke="#000000" stroke-width="0.5" stroke-linecap="square" width="94.323" height="85.782"/>

			<rect id="rect64" x="677.505" y="352.431" fill="#F4E3D7" stroke="#000000" stroke-width="0.5" stroke-linecap="square" width="66.018" height="85.782"/>

			<rect id="rect65" x="743.522" y="398.766" fill="#F4E3D7" stroke="#000000" stroke-width="0.5" stroke-linecap="square" width="10.784" height="39.447"/>

			<rect id="rect66" x="754.306" y="404.935" fill="#F4E3D7" stroke="#000000" stroke-width="0.5" stroke-linecap="square" width="19.362" height="21.59"/>

			<rect id="rect67" x="826.919" y="345.693" fill="#F4E3D7" stroke="#000000" stroke-width="0.5" stroke-linecap="square" width="41.073" height="6.739"/>

			<rect id="rect68" x="834.286" y="328.442" fill="#F4E3D7" stroke="#000000" stroke-width="0.5" stroke-linecap="square" width="25.188" height="17.251"/>

			<rect id="rect69" x="667.274" y="249.203" fill="#F4E3D7" stroke="#000000" stroke-width="0.5" stroke-linecap="square" width="200.718" height="79.238"/>

			<rect id="rect70" x="677.75" y="139.432" fill="#F4E3D7" stroke="#000000" stroke-width="0.5" stroke-linecap="square" width="46.66" height="78.512"/>

			<path id="path2" sodipodi:nodetypes="ccccc" inkscape:connector-curvature="0" fill="#F4E3D7" stroke="#000000" stroke-width="0.5" d="
			M750.588,139.432v78.512h118.829l-6.917-78.512H750.588z"/>

			<rect id="rect71" x="826.919" y="242.102" fill="#F4E3D7" stroke="#000000" stroke-width="0.5" stroke-linecap="square" width="41.073" height="7.101"/>

			<rect id="rect72" x="834.286" y="217.944" fill="#F4E3D7" stroke="#000000" stroke-width="0.5" stroke-linecap="square" width="26.439" height="24.158"/>

			<path id="rect73" sodipodi:nodetypes="ccccccc" inkscape:connector-curvature="0" fill="#F4E3D7" stroke="#000000" stroke-width="0.5" stroke-linecap="square" d="
			M152.156,113.249v323.446h475.97V257.562h-131.78V113.249H152.156z"/>
		<path id="rect3190" fill="#F4EED7" stroke="#000000" stroke-width="0.5" stroke-linecap="square" d="M421.617,486.281h29.866
			c0.1,0,0.182,0.081,0.182,0.182v24.824c0,0.101-0.082,0.182-0.182,0.182h-29.866c-0.1,0-0.182-0.081-0.182-0.182v-24.824
			C421.435,486.363,421.517,486.281,421.617,486.281z"/>
	</g>
	<g id="layer9" transform="translate(14.473802,9.4938883)" inkscape:label="In den Mauern" inkscape:groupmode="layer" sodipodi:insensitive="true">

			<rect id="rect74" x="883.077" y="1048.315" fill="none" stroke="#000000" stroke-width="0.5" stroke-linecap="square" width="21.075" height="21.076"/>

			<rect id="rect75" x="883.077" y="1125.01" fill="none" stroke="#000000" stroke-width="0.5" stroke-linecap="square" width="21.075" height="21.076"/>

			<rect id="rect76" x="883.077" y="1200.251" fill="none" stroke="#000000" stroke-width="0.5" stroke-linecap="square" width="21.075" height="21.076"/>

			<rect id="rect77" x="883.077" y="1275.491" fill="none" stroke="#000000" stroke-width="0.5" stroke-linecap="square" width="21.075" height="21.076"/>
	</g>
	<g id="layer10" transform="translate(14.473802,9.4938883)" inkscape:label="Einrichtung" inkscape:groupmode="layer" sodipodi:insensitive="true">

			<rect id="rect78" x="127.218" y="1151.725" fill="#DDE9AF" stroke="#000000" stroke-width="0.5" stroke-linecap="square" width="18.538" height="44.891"/>

			<path id="path3" sodipodi:nodetypes="cccccc" inkscape:connector-curvature="0" fill="#E9DDAF" stroke="#000000" stroke-width="0.5" d="
			M518.324,850.743v13.105h-30.896v54.887h30.896v14.721h-66.132v-82.711L518.324,850.743z"/>

			<rect id="rect79" x="156.782" y="852.921" fill="#E9DDAF" stroke="#000000" stroke-width="0.5" stroke-linecap="square" width="29.814" height="71.965"/>
		<path id="path4" inkscape:connector-curvature="0" fill="none" stroke="#000000" stroke-width="0.5" d="M156.782,862.815h29.814
			"/>
		<path id="path4" inkscape:connector-curvature="0" fill="none" stroke="#000000" stroke-width="0.5" d="M156.782,914.604h29.814
			"/>

			<rect id="rect80" x="727.507" y="486.281" fill="#E9DDAF" stroke="#000000" stroke-width="0.5" stroke-linecap="square" width="46.162" height="25.188"/>
		<path id="path5" inkscape:connector-curvature="0" fill="#E9DDAF" stroke="#000000" stroke-width="0.5" d="M764.219,511.469
			L762,550.28h-21.462l-1.991-38.811H764.219z"/>
		<path id="path6" inkscape:connector-curvature="0" fill="none" stroke="#000000" stroke-width="0.5" d="M738.957,519.906h24.553
			"/>
		<path id="path7" inkscape:connector-curvature="0" fill="none" stroke="#000000" stroke-width="0.5" d="M739.543,530.874h23.581
			"/>
		<path id="path8" inkscape:connector-curvature="0" fill="none" stroke="#000000" stroke-width="0.5" d="M739.992,540.416h22.457
			"/>
		<path id="path9" inkscape:connector-curvature="0" fill="#E9C6AF" stroke="#000000" stroke-width="0.5" d="M694.625,249.203
			v19.175h20.125v41.375h-20.125v18.689l-27.351,0v-79.239L694.625,249.203z"/>

			<rect id="rect81" x="661.826" y="646.488" fill="#E9DDAF" stroke="#000000" stroke-width="0.5" stroke-linecap="square" width="9.887" height="19.991"/>

			<rect id="rect82" x="127.218" y="842.384" fill="#E9DDAF" stroke="#000000" stroke-width="0.5" stroke-linecap="square" width="29.564" height="92.912"/>

			<rect id="rect83" x="100.264" y="1141.55" fill="#DDE9AF" stroke="#000000" stroke-width="0.5" stroke-linecap="square" width="26.954" height="66.879"/>
		<path id="path10" inkscape:connector-curvature="0" fill="none" stroke="#000000" stroke-width="0.5" d="M116.314,1141.366
			v67.063"/>
	</g>
	<g id="layer12" transform="translate(14.473802,9.4938883)" inkscape:label="Grabschaechte" inkscape:groupmode="layer" sodipodi:insensitive="true">
		<g id="g3399">

				<rect id="rect84" x="298.451" y="1125.212" fill="#EEF4D7" stroke="#000000" stroke-width="0.5" stroke-linecap="square" width="96.443" height="96.441"/>

				<path id="path11" sodipodi:nodetypes="cc" inkscape:connector-curvature="0" fill="none" stroke="#000000" stroke-width="0.5" d="
				M301.537,1128.391l90.271,90.082"/>

				<path id="path12" sodipodi:nodetypes="cc" inkscape:connector-curvature="0" fill="none" stroke="#000000" stroke-width="0.5" d="
				M301.909,1218.007l89.527-89.148"/>
		</g>
		<g id="g4525">

				<rect id="rect85" x="529.659" y="847.237" fill="#F4EED7" stroke="#000000" stroke-width="0.5" stroke-linecap="square" width="85.642" height="79.74"/>

				<path id="path13" sodipodi:nodetypes="cc" inkscape:connector-curvature="0" fill="none" stroke="#000000" stroke-width="0.5" d="
				M531.963,849.827l81.034,74.563"/>

				<path id="path14" sodipodi:nodetypes="cc" inkscape:connector-curvature="0" fill="none" stroke="#000000" stroke-width="0.5" d="
				M532.297,924.341l80.366-74.465"/>
		</g>
		<g id="g3393">

				<rect id="rect86" x="523.74" y="112.865" fill="#F4E3D7" stroke="#000000" stroke-width="0.5" stroke-linecap="square" width="106.184" height="115.741"/>

				<path id="path87" sodipodi:nodetypes="cc" inkscape:connector-curvature="0" fill="none" stroke="#000000" stroke-width="0.5" d="
				M527.908,116.861l97.848,107.748"/>

				<path id="path88" sodipodi:nodetypes="cc" inkscape:connector-curvature="0" fill="none" stroke="#000000" stroke-width="0.5" d="
				M527.337,224.799l98.99-108.127"/>
		</g>
		<g id="g3404">

				<rect id="rect89" x="753.235" y="1417.202" fill="none" stroke="#000000" stroke-width="0.5" stroke-linecap="square" width="49.001" height="49.842"/>
			<path id="path4087" inkscape:connector-curvature="0" fill="none" stroke="#000000" stroke-width="0.5" d="M755.44,1419.827
				l44.591,44.592"/>
			<path id="path4089" inkscape:connector-curvature="0" fill="none" stroke="#000000" stroke-width="0.5" d="M755.265,1464.593
				l44.941-44.939"/>
		</g>
	</g>
	<g id="layer13" transform="translate(-5.9441437,7.9118888)" inkscape:label="Legende" inkscape:groupmode="layer">
		<text transform="matrix(1 0 0 1 614.6824 1450.1482)" font-family="'ArialMT'" font-size="28">A1</text>
		<g id="g3395">
			<rect id="rect90" x="778.704" y="1465.766" fill="#F4EED7" width="38.229" height="5.52">
			<title  id="title4175">Abdecker A2</title>
			</rect>
			<text transform="matrix(1 0 0 1 780.0867 1476.4382)" font-family="'ArialMT'" font-size="28">A2</text>
		</g>
		<text transform="matrix(1 0 0 1 670.4344 1312.4441)" font-family="'ArialMT'" font-size="28">A3</text>
		<text transform="matrix(1 0 0 1 672.5135 1098.6814)" font-family="'ArialMT'" font-size="28">A4</text>
		<text transform="matrix(1 0 0 1 559.032 1205.8132)" font-family="'ArialMT'" font-size="28">A5</text>
		<text transform="matrix(1 0 0 1 490.1048 1017.1003)" font-family="'ArialMT'" font-size="28">A6</text>
		<text transform="matrix(1 0 0 1 254.8235 1017.658)" font-family="'ArialMT'" font-size="28">A7</text>
		<text transform="matrix(1 0 0 1 279.4339 903.1414)" font-family="'ArialMT'" font-size="28">A8</text>
		<text transform="matrix(1 0 0 1 377.0062 730.0613)" font-family="'ArialMT'" font-size="28">A9</text>
		<text transform="matrix(1 0 0 1 819.157 1182.322)" font-family="'ArialMT'" font-size="28">A10</text>
		<text transform="matrix(1 0 0 1 659.9861 905.1824)" font-family="'ArialMT'" font-size="28">A11</text>
		<text transform="matrix(1 0 0 1 837.9734 908.5642)" font-family="'ArialMT'" font-size="28">A12</text>
		<text transform="matrix(1 0 0 1 556.9344 660.2322)" font-family="'ArialMT'" font-size="28">A13</text>
		<text transform="matrix(1 0 0 1 328.6702 508.1218)" font-family="'ArialMT'" font-size="28">A14</text>
		<text transform="matrix(0 -1 1 0 300.0994 633.9109)" font-family="'ArialMT'" font-size="28">A15</text>
		<text transform="matrix(1 0 0 1 367.9901 579.0974)" font-family="'ArialMT'" font-size="28">A16</text>
		<text transform="matrix(1 0 0 1 269.6419 802.824)" font-family="'ArialMT'" font-size="28">A17</text>
		<text transform="matrix(1 0 0 1 191.5115 792.7761)" font-family="'ArialMT'" font-size="28">A18</text>
		<text transform="matrix(1 0 0 1 189.7254 704.1541)" font-family="'ArialMT'" font-size="28">A19</text>
		<text transform="matrix(1 0 0 1 190.4871 611.2478)" font-family="'ArialMT'" font-size="28">A20</text>
		<text transform="matrix(1 0 0 1 190.533 516.6873)" font-family="'ArialMT'" font-size="28">A21</text>
		<text transform="matrix(1 0 0 1 419.1556 1386.7976)" font-family="'ArialMT'" font-size="28">B1</text>
		<text transform="matrix(1 0 0 1 460.9495 1136.5144)" font-family="'ArialMT'" font-size="28">B2</text>
		<text transform="matrix(1 0 0 1 220.1189 1420.0593)" font-family="'ArialMT'" font-size="28">B3</text>
		<text transform="matrix(0 -1 1 0 164.5779 1404.3425)" font-family="'ArialMT'" font-size="28">B4</text>
		<text transform="matrix(1 0 0 1 215.1795 1122.4871)" font-family="'ArialMT'" font-size="28">B5</text>
		<text transform="matrix(1 0 0 1 350.6849 1215.0232)" font-family="'ArialMT'" font-size="28">B6</text>
		<text transform="matrix(1 0 0 1 823.7293 405.9441)" font-family="'ArialMT'" font-size="28">C1</text>
		<text transform="matrix(1 0 0 1 715.4246 406.4255)" font-family="'ArialMT'" font-size="28">C2</text>
		<text transform="matrix(1 0 0 1 776.6356 300.5046)" font-family="'ArialMT'" font-size="28">C3</text>
		<text transform="matrix(1 0 0 1 812.0418 189.3162)" font-family="'ArialMT'" font-size="28">C4</text>
		<text transform="matrix(1 0 0 1 705.0506 189.8103)" font-family="'ArialMT'" font-size="28">C5</text>
		<text transform="matrix(1 0 0 1 580.9393 215.7742)" font-family="'ArialMT'" font-size="28">C6</text>
		<path fill="none" d=""/>
		<path id="path4094" inkscape:connector-curvature="0" stroke="#000000" d="M552.763,1591.089l4,4l-4-14l-4,14L552.763,1591.089z"/>
		<path id="path3362" sodipodi:nodetypes="cc" inkscape:connector-curvature="0" stroke="#000000" d="M552.763,1581.089"/>
	</g>
	</svg>